<?xml version="1.0" encoding="UTF-8" standalone="no"?><!DOCTYPE svg PUBLIC "-//W3C//DTD SVG 1.1//EN" "http://www.w3.org/Graphics/SVG/1.1/DTD/svg11.dtd"><svg width="100%" height="100%" viewBox="0 0 1110 417" version="1.1" xmlns="http://www.w3.org/2000/svg" xmlns:xlink="http://www.w3.org/1999/xlink" xml:space="preserve" style="fill-rule:evenodd;clip-rule:evenodd;stroke-linejoin:round;stroke-miterlimit:1.41421;"><g id="White"><path d="M131.891,242.454l43.031,0l-55.266,153.281l-42.328,0l-54.984,-153.281l45,0l31.922,113.063l32.625,-113.063Z" style="fill:#fff;fill-rule:nonzero;"/><path d="M238.766,224.173l-40.641,0l0,-36.985l40.641,0l0,36.985ZM198.125,242.454l40.641,0l0,153.281l-40.641,0l0,-153.281Z" style="fill:#fff;fill-rule:nonzero;"/><path d="M308.797,346.798c0.844,7.125 2.672,12.187 5.484,15.187c4.969,5.344 14.156,8.016 27.563,8.016c7.875,0 14.133,-1.172 18.773,-3.516c4.641,-2.343 6.961,-5.859 6.961,-10.547c0,-4.5 -1.875,-7.921 -5.625,-10.265c-3.75,-2.344 -17.672,-6.375 -41.766,-12.094c-17.343,-4.312 -29.578,-9.703 -36.703,-16.172c-7.125,-6.375 -10.687,-15.562 -10.687,-27.562c0,-14.157 5.555,-26.321 16.664,-36.492c11.109,-10.172 26.742,-15.258 46.898,-15.258c19.125,0 34.711,3.82 46.758,11.461c12.047,7.64 18.961,20.836 20.742,39.586l-40.078,0c-0.562,-5.157 -2.015,-9.235 -4.359,-12.235c-4.406,-5.437 -11.906,-8.156 -22.5,-8.156c-8.719,0 -14.93,1.359 -18.633,4.078c-3.703,2.719 -5.555,5.906 -5.555,9.563c0,4.593 1.969,7.921 5.907,9.984c3.937,2.156 17.859,5.859 41.765,11.109c15.938,3.75 27.891,9.422 35.86,17.016c7.875,7.687 11.812,17.297 11.812,28.828c0,15.188 -5.648,27.586 -16.945,37.195c-11.297,9.61 -28.758,14.414 -52.383,14.414c-24.094,0 -41.883,-5.085 -53.367,-15.257c-11.485,-10.172 -17.227,-23.133 -17.227,-38.883l40.641,0Z" style="fill:#fff;fill-rule:nonzero;"/><path d="M478.953,224.173l-40.641,0l0,-36.985l40.641,0l0,36.985ZM438.313,242.454l40.64,0l0,153.281l-40.64,0l0,-153.281Z" style="fill:#fff;fill-rule:nonzero;"/><path d="M502.016,272.407l0,-28.547l21.375,0l0,-42.75l39.656,0l0,42.75l24.89,0l0,28.547l-24.89,0l0,81c0,6.281 0.797,10.196 2.39,11.742c1.594,1.547 6.469,2.321 14.625,2.321c1.219,0 2.508,-0.024 3.868,-0.071c1.359,-0.046 2.695,-0.117 4.007,-0.211l0,29.954l-18.984,0.703c-18.937,0.656 -31.875,-2.625 -38.812,-9.844c-4.5,-4.594 -6.75,-11.672 -6.75,-21.234l0,-94.36l-21.375,0Z" style="fill:#fff;fill-rule:nonzero;"/><path d="M709.438,354.954c6.281,-8.344 9.421,-20.203 9.421,-35.578c0,-15.375 -3.14,-27.211 -9.422,-35.508c-6.281,-8.297 -15.281,-12.445 -27,-12.445c-11.718,0 -20.742,4.148 -27.07,12.445c-6.328,8.297 -9.492,20.133 -9.492,35.508c0,15.375 3.164,27.234 9.492,35.578c6.328,8.344 15.352,12.516 27.071,12.516c11.718,0 20.718,-4.172 27,-12.516ZM741.5,377.103c-12.938,15.984 -32.578,23.976 -58.922,23.976c-26.344,0 -45.984,-7.992 -58.922,-23.976c-12.937,-15.985 -19.406,-35.227 -19.406,-57.727c0,-22.125 6.469,-41.297 19.406,-57.516c12.938,-16.218 32.578,-24.328 58.922,-24.328c26.344,0 45.985,8.11 58.922,24.328c12.938,16.219 19.406,35.391 19.406,57.516c0,22.5 -6.468,41.742 -19.406,57.727Z" style="fill:#fff;fill-rule:nonzero;"/><path d="M874.742,238.868c0.516,0.047 1.664,0.117 3.446,0.211l0,41.063c-2.532,-0.282 -4.782,-0.469 -6.75,-0.563c-1.969,-0.094 -3.563,-0.141 -4.782,-0.141c-16.125,0 -26.953,5.25 -32.484,15.75c-3.094,5.907 -4.641,15 -4.641,27.282l0,73.265l-40.359,0l0,-153.281l38.25,0l0,26.719c6.187,-10.219 11.578,-17.203 16.172,-20.953c7.5,-6.282 17.25,-9.422 29.25,-9.422c0.75,0 1.383,0.023 1.898,0.07Z" style="fill:#fff;fill-rule:nonzero;"/><ellipse cx="1001.5" cy="107.5" rx="61.5" ry="87.5" style="fill:#fff;"/><path d="M942.083,397.041c2.944,0 8.831,0.771 8.831,-3.855c0,-3.598 -15.455,-49.859 -15.455,-116.937c0,-5.397 -0.245,-37.009 7.85,-37.009c7.605,0 15.701,25.958 18.154,31.612c21.834,52.686 13.738,76.844 34.346,76.844c16.436,0 8.095,-24.158 28.703,-76.844c2.453,-6.168 11.775,-31.612 18.89,-31.612c8.095,0 7.359,31.612 7.359,37.009c0,67.078 -13.983,113.339 -13.983,116.937c0,4.626 5.888,3.855 8.832,3.855l31.401,0c6.133,0 13.493,4.883 13.493,-91.494c0,-126.96 -12.757,-122.334 -16.928,-122.334l-19.135,0c-9.567,0 -13.247,-0.257 -26.985,17.22c-26.005,33.153 -27.477,51.915 -31.157,51.915c-4.906,0 -6.378,-18.762 -29.439,-51.915c-12.02,-17.22 -15.455,-17.22 -25.023,-17.22l-22.569,0c-4.171,0 -16.928,-4.626 -16.928,122.334c0,96.377 7.36,91.494 13.493,91.494l26.25,0Z" style="fill:#fff;fill-rule:nonzero;"/></g></svg>