<?xml version="1.0" encoding="UTF-8" standalone="no"?>
<!DOCTYPE svg PUBLIC "-//W3C//DTD SVG 1.1//EN" "http://www.w3.org/Graphics/SVG/1.1/DTD/svg11.dtd">
<svg width="100%" height="100%" viewBox="0 0 1110 417" version="1.1" xmlns="http://www.w3.org/2000/svg" xmlns:xlink="http://www.w3.org/1999/xlink" xml:space="preserve" style="fill-rule:evenodd;clip-rule:evenodd;stroke-linejoin:round;stroke-miterlimit:1.41421;">
    <g id="White-with-Focus" transform="matrix(1,0,0,1,-66,-155)">
        <g transform="matrix(1,0,0,1,0,99)">
            <path d="M197.891,298.454L240.922,298.454L185.656,451.735L143.328,451.735L88.344,298.454L133.344,298.454L165.266,411.517L197.891,298.454Z" style="fill:white;fill-rule:nonzero;"/>
            <path d="M304.766,280.173L264.125,280.173L264.125,243.188L304.766,243.188L304.766,280.173ZM264.125,298.454L304.766,298.454L304.766,451.735L264.125,451.735L264.125,298.454Z" style="fill:white;fill-rule:nonzero;"/>
            <path d="M374.797,402.798C375.641,409.923 377.469,414.985 380.281,417.985C385.25,423.329 394.438,426.001 407.844,426.001C415.719,426.001 421.977,424.829 426.617,422.485C431.258,420.142 433.578,416.626 433.578,411.938C433.578,407.438 431.703,404.017 427.953,401.673C424.203,399.329 410.281,395.298 386.188,389.579C368.844,385.267 356.609,379.876 349.484,373.407C342.359,367.032 338.797,357.845 338.797,345.845C338.797,331.688 344.352,319.524 355.461,309.353C366.57,299.181 382.203,294.095 402.359,294.095C421.484,294.095 437.07,297.915 449.117,305.556C461.164,313.196 468.078,326.392 469.859,345.142L429.781,345.142C429.219,339.985 427.766,335.907 425.422,332.907C421.016,327.47 413.516,324.751 402.922,324.751C394.203,324.751 387.992,326.11 384.289,328.829C380.586,331.548 378.734,334.735 378.734,338.392C378.734,342.985 380.703,346.313 384.641,348.376C388.578,350.532 402.5,354.235 426.406,359.485C442.344,363.235 454.297,368.907 462.266,376.501C470.141,384.188 474.078,393.798 474.078,405.329C474.078,420.517 468.43,432.915 457.133,442.524C445.836,452.134 428.375,456.938 404.75,456.938C380.656,456.938 362.867,451.853 351.383,441.681C339.898,431.509 334.156,418.548 334.156,402.798L374.797,402.798Z" style="fill:white;fill-rule:nonzero;"/>
            <path d="M544.953,280.173L504.313,280.173L504.313,243.188L544.953,243.188L544.953,280.173ZM504.313,298.454L544.953,298.454L544.953,451.735L504.313,451.735L504.313,298.454Z" style="fill:white;fill-rule:nonzero;"/>
            <path d="M568.016,328.407L568.016,299.86L589.391,299.86L589.391,257.11L629.047,257.11L629.047,299.86L653.938,299.86L653.938,328.407L629.047,328.407L629.047,409.407C629.047,415.688 629.844,419.603 631.438,421.149C633.031,422.696 637.906,423.47 646.063,423.47C647.281,423.47 648.57,423.446 649.93,423.399C651.289,423.353 652.625,423.282 653.938,423.188L653.938,453.142L634.953,453.845C616.016,454.501 603.078,451.22 596.141,444.001C591.641,439.407 589.391,432.329 589.391,422.767L589.391,328.407L568.016,328.407Z" style="fill:white;fill-rule:nonzero;"/>
            <path d="M775.438,410.954C781.719,402.61 784.859,390.751 784.859,375.376C784.859,360.001 781.719,348.165 775.438,339.868C769.156,331.571 760.156,327.423 748.438,327.423C736.719,327.423 727.695,331.571 721.367,339.868C715.039,348.165 711.875,360.001 711.875,375.376C711.875,390.751 715.039,402.61 721.367,410.954C727.695,419.298 736.719,423.47 748.438,423.47C760.156,423.47 769.156,419.298 775.438,410.954ZM807.5,433.103C794.563,449.087 774.922,457.079 748.578,457.079C722.234,457.079 702.594,449.087 689.656,433.103C676.719,417.118 670.25,397.876 670.25,375.376C670.25,353.251 676.719,334.079 689.656,317.86C702.594,301.642 722.234,293.532 748.578,293.532C774.922,293.532 794.563,301.642 807.5,317.86C820.438,334.079 826.906,353.251 826.906,375.376C826.906,397.876 820.438,417.118 807.5,433.103Z" style="fill:white;fill-rule:nonzero;"/>
            <path d="M940.742,294.868C941.258,294.915 942.406,294.985 944.188,295.079L944.188,336.142C941.656,335.86 939.406,335.673 937.438,335.579C935.469,335.485 933.875,335.438 932.656,335.438C916.531,335.438 905.703,340.688 900.172,351.188C897.078,357.095 895.531,366.188 895.531,378.47L895.531,451.735L855.172,451.735L855.172,298.454L893.422,298.454L893.422,325.173C899.609,314.954 905,307.97 909.594,304.22C917.094,297.938 926.844,294.798 938.844,294.798C939.594,294.798 940.227,294.821 940.742,294.868Z" style="fill:white;fill-rule:nonzero;"/>
        </g>
        <g transform="matrix(0.702857,0,0,1,346.017,115)">
            <circle cx="1026.5" cy="147.5" r="87.5" style="fill:rgb(72,171,241);"/>
        </g>
        <g transform="matrix(0.85182,0,0,0.892376,566.729,15.2906)">
            <path d="M518.13,601.485C521.586,601.485 528.498,602.349 528.498,597.165C528.498,593.133 510.354,541.293 510.354,466.125C510.354,460.077 510.066,424.653 519.57,424.653C528.498,424.653 538.002,453.741 540.882,460.077C566.514,519.117 557.01,546.189 581.202,546.189C600.498,546.189 590.706,519.117 614.898,460.077C617.778,453.165 628.722,424.653 637.074,424.653C646.578,424.653 645.714,460.077 645.714,466.125C645.714,541.293 629.298,593.133 629.298,597.165C629.298,602.349 636.21,601.485 639.666,601.485L676.53,601.485C683.73,601.485 692.37,606.957 692.37,498.957C692.37,356.685 677.394,361.869 672.498,361.869L650.034,361.869C638.802,361.869 634.482,361.581 618.354,381.165C587.826,418.317 586.098,439.341 581.778,439.341C576.018,439.341 574.29,418.317 547.218,381.165C533.106,361.869 529.074,361.869 517.842,361.869L491.346,361.869C486.45,361.869 471.474,356.685 471.474,498.957C471.474,606.957 480.114,601.485 487.314,601.485L518.13,601.485Z" style="fill:rgb(72,171,241);fill-rule:nonzero;"/>
        </g>
    </g>
</svg>
